<mxfile host="app.diagrams.net" modified="2020-03-24T05:20:00.976Z" agent="Mozilla/5.0 (Macintosh; Intel Mac OS X 10_15_3) AppleWebKit/537.36 (KHTML, like Gecko) Chrome/79.0.3945.130 Safari/537.36" etag="j2GAGH_lE7texQ_9sQAr" version="12.9.0" type="github" pages="2">
  <diagram id="HhtTGukB8IkxPl_5MrgR" name="base">
    <mxGraphModel dx="946" dy="613" grid="1" gridSize="10" guides="1" tooltips="1" connect="1" arrows="1" fold="1" page="1" pageScale="1" pageWidth="827" pageHeight="1169" math="0" shadow="0">
      <root>
        <mxCell id="0" />
        <mxCell id="1" parent="0" />
        <mxCell id="1kePdqKyU_XRXXnLLObr-27" value="" style="rounded=1;whiteSpace=wrap;html=1;fontSize=13;fillColor=none;strokeColor=#3333FF;dashed=1;strokeWidth=2;" vertex="1" parent="1">
          <mxGeometry x="10" y="370" width="490" height="160" as="geometry" />
        </mxCell>
        <mxCell id="1kePdqKyU_XRXXnLLObr-11" style="edgeStyle=orthogonalEdgeStyle;rounded=0;orthogonalLoop=1;jettySize=auto;html=1;exitX=0.5;exitY=1;exitDx=0;exitDy=0;entryX=0.5;entryY=0;entryDx=0;entryDy=0;fontSize=13;" edge="1" parent="1" source="1kePdqKyU_XRXXnLLObr-1" target="1kePdqKyU_XRXXnLLObr-2">
          <mxGeometry relative="1" as="geometry" />
        </mxCell>
        <mxCell id="1kePdqKyU_XRXXnLLObr-12" style="edgeStyle=orthogonalEdgeStyle;rounded=0;orthogonalLoop=1;jettySize=auto;html=1;exitX=0.5;exitY=1;exitDx=0;exitDy=0;entryX=0.5;entryY=0;entryDx=0;entryDy=0;fontSize=13;" edge="1" parent="1" source="1kePdqKyU_XRXXnLLObr-1" target="1kePdqKyU_XRXXnLLObr-7">
          <mxGeometry relative="1" as="geometry" />
        </mxCell>
        <mxCell id="1kePdqKyU_XRXXnLLObr-1" value="静态图" style="rounded=0;whiteSpace=wrap;html=1;" vertex="1" parent="1">
          <mxGeometry x="230" y="240" width="120" height="60" as="geometry" />
        </mxCell>
        <mxCell id="1kePdqKyU_XRXXnLLObr-13" style="edgeStyle=orthogonalEdgeStyle;rounded=0;orthogonalLoop=1;jettySize=auto;html=1;exitX=0.5;exitY=1;exitDx=0;exitDy=0;entryX=0.5;entryY=0;entryDx=0;entryDy=0;fontSize=13;" edge="1" parent="1" source="1kePdqKyU_XRXXnLLObr-2" target="1kePdqKyU_XRXXnLLObr-4">
          <mxGeometry relative="1" as="geometry" />
        </mxCell>
        <mxCell id="1kePdqKyU_XRXXnLLObr-2" value="Persistables" style="rounded=0;whiteSpace=wrap;html=1;fillColor=#dae8fc;strokeColor=#6c8ebf;" vertex="1" parent="1">
          <mxGeometry x="120" y="390" width="120" height="40" as="geometry" />
        </mxCell>
        <mxCell id="1kePdqKyU_XRXXnLLObr-3" value="LoDTensor" style="rounded=0;whiteSpace=wrap;html=1;fillColor=#dae8fc;strokeColor=#6c8ebf;" vertex="1" parent="1">
          <mxGeometry x="30" y="470" width="100" height="40" as="geometry" />
        </mxCell>
        <mxCell id="1kePdqKyU_XRXXnLLObr-4" value="LoDTensor" style="rounded=0;whiteSpace=wrap;html=1;fillColor=#dae8fc;strokeColor=#6c8ebf;" vertex="1" parent="1">
          <mxGeometry x="130" y="470" width="100" height="40" as="geometry" />
        </mxCell>
        <mxCell id="1kePdqKyU_XRXXnLLObr-5" value="LoDTensor" style="rounded=0;whiteSpace=wrap;html=1;fillColor=#dae8fc;strokeColor=#6c8ebf;" vertex="1" parent="1">
          <mxGeometry x="230" y="470" width="100" height="40" as="geometry" />
        </mxCell>
        <mxCell id="1kePdqKyU_XRXXnLLObr-14" style="edgeStyle=orthogonalEdgeStyle;rounded=0;orthogonalLoop=1;jettySize=auto;html=1;exitX=0.5;exitY=1;exitDx=0;exitDy=0;fontSize=13;" edge="1" parent="1" source="1kePdqKyU_XRXXnLLObr-7" target="1kePdqKyU_XRXXnLLObr-8">
          <mxGeometry relative="1" as="geometry" />
        </mxCell>
        <mxCell id="1kePdqKyU_XRXXnLLObr-7" value="Models" style="rounded=0;whiteSpace=wrap;html=1;fillColor=#d5e8d4;strokeColor=#82b366;" vertex="1" parent="1">
          <mxGeometry x="330" y="390" width="120" height="40" as="geometry" />
        </mxCell>
        <mxCell id="1kePdqKyU_XRXXnLLObr-8" value="ProgramDesc" style="rounded=0;whiteSpace=wrap;html=1;fillColor=#d5e8d4;strokeColor=#82b366;" vertex="1" parent="1">
          <mxGeometry x="360" y="470" width="120" height="40" as="geometry" />
        </mxCell>
        <mxCell id="1kePdqKyU_XRXXnLLObr-10" value="fluid.io.save_inference_model" style="text;html=1;align=center;verticalAlign=middle;resizable=0;points=[];autosize=1;fontSize=13;" vertex="1" parent="1">
          <mxGeometry x="85" y="310" width="190" height="20" as="geometry" />
        </mxCell>
        <mxCell id="1kePdqKyU_XRXXnLLObr-25" style="edgeStyle=orthogonalEdgeStyle;rounded=0;orthogonalLoop=1;jettySize=auto;html=1;exitX=0.5;exitY=1;exitDx=0;exitDy=0;entryX=0.5;entryY=0;entryDx=0;entryDy=0;fontSize=13;" edge="1" parent="1" source="1kePdqKyU_XRXXnLLObr-15" target="1kePdqKyU_XRXXnLLObr-16">
          <mxGeometry relative="1" as="geometry" />
        </mxCell>
        <mxCell id="1kePdqKyU_XRXXnLLObr-15" value="动态图" style="rounded=0;whiteSpace=wrap;html=1;" vertex="1" parent="1">
          <mxGeometry x="700" y="250" width="120" height="60" as="geometry" />
        </mxCell>
        <mxCell id="1kePdqKyU_XRXXnLLObr-26" style="edgeStyle=orthogonalEdgeStyle;rounded=0;orthogonalLoop=1;jettySize=auto;html=1;exitX=0.5;exitY=1;exitDx=0;exitDy=0;entryX=0.5;entryY=0;entryDx=0;entryDy=0;fontSize=13;" edge="1" parent="1" source="1kePdqKyU_XRXXnLLObr-16" target="1kePdqKyU_XRXXnLLObr-20">
          <mxGeometry relative="1" as="geometry" />
        </mxCell>
        <mxCell id="1kePdqKyU_XRXXnLLObr-16" value="Parameters" style="rounded=0;whiteSpace=wrap;html=1;fillColor=#ffe6cc;strokeColor=#d79b00;" vertex="1" parent="1">
          <mxGeometry x="700" y="380" width="120" height="40" as="geometry" />
        </mxCell>
        <mxCell id="1kePdqKyU_XRXXnLLObr-17" value="name -&amp;gt; nparray" style="rounded=0;whiteSpace=wrap;html=1;fillColor=#ffe6cc;strokeColor=#d79b00;" vertex="1" parent="1">
          <mxGeometry x="600" y="460" width="110" height="40" as="geometry" />
        </mxCell>
        <mxCell id="1kePdqKyU_XRXXnLLObr-20" value="name -&amp;gt; nparray" style="rounded=0;whiteSpace=wrap;html=1;fillColor=#ffe6cc;strokeColor=#d79b00;" vertex="1" parent="1">
          <mxGeometry x="710" y="460" width="110" height="40" as="geometry" />
        </mxCell>
        <mxCell id="1kePdqKyU_XRXXnLLObr-21" value="name -&amp;gt; nparray" style="rounded=0;whiteSpace=wrap;html=1;fillColor=#ffe6cc;strokeColor=#d79b00;" vertex="1" parent="1">
          <mxGeometry x="820" y="460" width="110" height="40" as="geometry" />
        </mxCell>
        <mxCell id="1kePdqKyU_XRXXnLLObr-22" value="fluid.save_dygraph&lt;br&gt;无法存储Model" style="text;html=1;align=center;verticalAlign=middle;resizable=0;points=[];autosize=1;fontSize=13;" vertex="1" parent="1">
          <mxGeometry x="810" y="330" width="120" height="40" as="geometry" />
        </mxCell>
        <mxCell id="1kePdqKyU_XRXXnLLObr-28" value="" style="shape=flexArrow;endArrow=classic;html=1;fontSize=13;" edge="1" parent="1">
          <mxGeometry width="50" height="50" relative="1" as="geometry">
            <mxPoint x="520" y="410" as="sourcePoint" />
            <mxPoint x="670" y="320" as="targetPoint" />
          </mxGeometry>
        </mxCell>
        <mxCell id="1kePdqKyU_XRXXnLLObr-29" value="继续训练" style="text;html=1;align=center;verticalAlign=middle;resizable=0;points=[];autosize=1;fontSize=13;" vertex="1" parent="1">
          <mxGeometry x="530" y="330" width="70" height="20" as="geometry" />
        </mxCell>
      </root>
    </mxGraphModel>
  </diagram>
  <diagram id="y1TU_4p_iIAbCVtNZwjB" name="Page-2">
    <mxGraphModel dx="946" dy="613" grid="1" gridSize="10" guides="1" tooltips="1" connect="1" arrows="1" fold="1" page="1" pageScale="1" pageWidth="827" pageHeight="1169" math="0" shadow="0">
      <root>
        <mxCell id="Vdkg41hQiwGgbLy7LcJk-0" />
        <mxCell id="Vdkg41hQiwGgbLy7LcJk-1" parent="Vdkg41hQiwGgbLy7LcJk-0" />
        <mxCell id="vurdL9MjWNo66thMDwqf-3" style="edgeStyle=orthogonalEdgeStyle;rounded=0;orthogonalLoop=1;jettySize=auto;html=1;exitX=0.5;exitY=1;exitDx=0;exitDy=0;entryX=0;entryY=0;entryDx=0;entryDy=0;fontSize=13;" edge="1" parent="Vdkg41hQiwGgbLy7LcJk-1" source="vurdL9MjWNo66thMDwqf-4" target="vurdL9MjWNo66thMDwqf-6">
          <mxGeometry relative="1" as="geometry" />
        </mxCell>
        <mxCell id="vurdL9MjWNo66thMDwqf-4" value="Parameters" style="rounded=0;whiteSpace=wrap;html=1;fillColor=#dae8fc;strokeColor=#6c8ebf;" vertex="1" parent="Vdkg41hQiwGgbLy7LcJk-1">
          <mxGeometry x="360" y="271" width="120" height="40" as="geometry" />
        </mxCell>
        <mxCell id="vurdL9MjWNo66thMDwqf-5" value="LoDTensor" style="rounded=0;whiteSpace=wrap;html=1;fillColor=#dae8fc;strokeColor=#6c8ebf;" vertex="1" parent="Vdkg41hQiwGgbLy7LcJk-1">
          <mxGeometry x="314" y="340" width="100" height="40" as="geometry" />
        </mxCell>
        <mxCell id="vurdL9MjWNo66thMDwqf-6" value="LoDTensor" style="rounded=0;whiteSpace=wrap;html=1;fillColor=#dae8fc;strokeColor=#6c8ebf;" vertex="1" parent="Vdkg41hQiwGgbLy7LcJk-1">
          <mxGeometry x="414" y="340" width="100" height="40" as="geometry" />
        </mxCell>
        <mxCell id="vurdL9MjWNo66thMDwqf-10" value="ProgramDesc" style="rounded=0;whiteSpace=wrap;html=1;fillColor=#d5e8d4;strokeColor=#82b366;" vertex="1" parent="Vdkg41hQiwGgbLy7LcJk-1">
          <mxGeometry x="139" y="340" width="120" height="40" as="geometry" />
        </mxCell>
        <mxCell id="vurdL9MjWNo66thMDwqf-13" value="动态图" style="rounded=0;whiteSpace=wrap;html=1;" vertex="1" parent="Vdkg41hQiwGgbLy7LcJk-1">
          <mxGeometry x="254" y="90" width="120" height="60" as="geometry" />
        </mxCell>
        <mxCell id="vurdL9MjWNo66thMDwqf-23" value="StaticModelRunner(Layer)" style="rounded=0;whiteSpace=wrap;html=1;strokeColor=#000000;strokeWidth=1;fillColor=none;fontSize=13;" vertex="1" parent="Vdkg41hQiwGgbLy7LcJk-1">
          <mxGeometry x="214" y="180" width="200" height="50" as="geometry" />
        </mxCell>
        <mxCell id="vurdL9MjWNo66thMDwqf-24" value="Load" style="text;html=1;align=center;verticalAlign=middle;resizable=0;points=[];autosize=1;fontSize=13;" vertex="1" parent="Vdkg41hQiwGgbLy7LcJk-1">
          <mxGeometry x="190" y="240" width="40" height="20" as="geometry" />
        </mxCell>
        <mxCell id="4x60L5q-0hJ3BwwnQkIZ-0" value="Models" style="rounded=0;whiteSpace=wrap;html=1;fillColor=#d5e8d4;strokeColor=#82b366;" vertex="1" parent="Vdkg41hQiwGgbLy7LcJk-1">
          <mxGeometry x="139" y="270" width="120" height="40" as="geometry" />
        </mxCell>
        <mxCell id="4x60L5q-0hJ3BwwnQkIZ-2" value="" style="rounded=1;whiteSpace=wrap;html=1;strokeColor=#000000;strokeWidth=1;fillColor=none;fontSize=13;" vertex="1" parent="Vdkg41hQiwGgbLy7LcJk-1">
          <mxGeometry x="100" y="260" width="450" height="140" as="geometry" />
        </mxCell>
      </root>
    </mxGraphModel>
  </diagram>
</mxfile>
